<mxfile host="app.diagrams.net" modified="2024-03-12T23:40:20.605Z" agent="Mozilla/5.0 (X11; Linux x86_64) AppleWebKit/537.36 (KHTML, like Gecko) Chrome/122.0.0.0 Safari/537.36" etag="Uy3nfTYnuHclX-stuMBk" version="24.0.5" type="device">
  <diagram name="Page-1" id="CzoyC5DOKvImm1Xz_qOV">
    <mxGraphModel dx="1006" dy="759" grid="1" gridSize="10" guides="1" tooltips="1" connect="1" arrows="1" fold="1" page="1" pageScale="1" pageWidth="850" pageHeight="1100" math="0" shadow="0">
      <root>
        <mxCell id="0" />
        <mxCell id="1" parent="0" />
        <mxCell id="jtqfHJgski-L8b3BMZRt-14" style="rounded=0;orthogonalLoop=1;jettySize=auto;html=1;exitX=0;exitY=0;exitDx=0;exitDy=0;entryX=0.5;entryY=1;entryDx=0;entryDy=0;endArrow=none;endFill=0;" parent="1" source="jtqfHJgski-L8b3BMZRt-1" target="jtqfHJgski-L8b3BMZRt-6" edge="1">
          <mxGeometry relative="1" as="geometry" />
        </mxCell>
        <mxCell id="jtqfHJgski-L8b3BMZRt-1" value="&lt;font style=&quot;font-size: 15px;&quot;&gt;USER&lt;/font&gt;" style="rounded=0;whiteSpace=wrap;html=1;fillColor=#B3B3B3;strokeColor=#000000;" parent="1" vertex="1">
          <mxGeometry x="400" y="190" width="70" height="40" as="geometry" />
        </mxCell>
        <mxCell id="jtqfHJgski-L8b3BMZRt-2" value="&lt;font style=&quot;font-size: 15px;&quot;&gt;LABEL&lt;/font&gt;" style="rounded=0;whiteSpace=wrap;html=1;fillColor=#B3B3B3;strokeColor=#000000;" parent="1" vertex="1">
          <mxGeometry x="395" y="510" width="80" height="40" as="geometry" />
        </mxCell>
        <mxCell id="jtqfHJgski-L8b3BMZRt-3" value="&lt;font style=&quot;font-size: 15px;&quot;&gt;SUBSCRIPTION&lt;/font&gt;" style="rounded=0;whiteSpace=wrap;html=1;fillColor=#B3B3B3;strokeColor=#000000;" parent="1" vertex="1">
          <mxGeometry x="501.5" y="350" width="150" height="40" as="geometry" />
        </mxCell>
        <mxCell id="jtqfHJgski-L8b3BMZRt-4" value="&lt;font style=&quot;font-size: 15px;&quot;&gt;PURCHASE&lt;/font&gt;" style="rounded=0;whiteSpace=wrap;html=1;fillColor=#B3B3B3;strokeColor=#000000;" parent="1" vertex="1">
          <mxGeometry x="247.5" y="350" width="120" height="40" as="geometry" />
        </mxCell>
        <mxCell id="jtqfHJgski-L8b3BMZRt-17" style="rounded=0;orthogonalLoop=1;jettySize=auto;html=1;entryX=0;entryY=0.5;entryDx=0;entryDy=0;endArrow=none;endFill=0;" parent="1" source="jtqfHJgski-L8b3BMZRt-5" target="jtqfHJgski-L8b3BMZRt-1" edge="1">
          <mxGeometry relative="1" as="geometry" />
        </mxCell>
        <mxCell id="jtqfHJgski-L8b3BMZRt-5" value="&lt;font style=&quot;font-size: 15px;&quot;&gt;&lt;u&gt;Id&lt;/u&gt;&lt;/font&gt;" style="ellipse;whiteSpace=wrap;html=1;" parent="1" vertex="1">
          <mxGeometry x="290" y="160" width="60" height="30" as="geometry" />
        </mxCell>
        <mxCell id="jtqfHJgski-L8b3BMZRt-6" value="&lt;font style=&quot;font-size: 15px;&quot;&gt;Name&lt;/font&gt;" style="ellipse;whiteSpace=wrap;html=1;" parent="1" vertex="1">
          <mxGeometry x="315" y="100" width="75" height="30" as="geometry" />
        </mxCell>
        <mxCell id="jtqfHJgski-L8b3BMZRt-15" style="rounded=0;orthogonalLoop=1;jettySize=auto;html=1;entryX=1;entryY=0;entryDx=0;entryDy=0;endArrow=none;endFill=0;" parent="1" source="jtqfHJgski-L8b3BMZRt-7" target="jtqfHJgski-L8b3BMZRt-1" edge="1">
          <mxGeometry relative="1" as="geometry" />
        </mxCell>
        <mxCell id="jtqfHJgski-L8b3BMZRt-7" value="&lt;font style=&quot;font-size: 15px;&quot;&gt;Username&lt;/font&gt;" style="ellipse;whiteSpace=wrap;html=1;" parent="1" vertex="1">
          <mxGeometry x="481.5" y="137" width="100" height="30" as="geometry" />
        </mxCell>
        <mxCell id="jtqfHJgski-L8b3BMZRt-16" style="rounded=0;orthogonalLoop=1;jettySize=auto;html=1;entryX=1;entryY=0.5;entryDx=0;entryDy=0;endArrow=none;endFill=0;" parent="1" source="jtqfHJgski-L8b3BMZRt-8" target="jtqfHJgski-L8b3BMZRt-1" edge="1">
          <mxGeometry relative="1" as="geometry" />
        </mxCell>
        <mxCell id="jtqfHJgski-L8b3BMZRt-8" value="&lt;font style=&quot;font-size: 15px;&quot;&gt;Password&lt;/font&gt;" style="ellipse;whiteSpace=wrap;html=1;" parent="1" vertex="1">
          <mxGeometry x="520" y="180" width="100" height="30" as="geometry" />
        </mxCell>
        <mxCell id="jtqfHJgski-L8b3BMZRt-12" style="rounded=0;orthogonalLoop=1;jettySize=auto;html=1;endArrow=none;endFill=0;" parent="1" source="jtqfHJgski-L8b3BMZRt-9" target="jtqfHJgski-L8b3BMZRt-6" edge="1">
          <mxGeometry relative="1" as="geometry" />
        </mxCell>
        <mxCell id="jtqfHJgski-L8b3BMZRt-9" value="&lt;font style=&quot;font-size: 15px;&quot;&gt;First_Name&lt;/font&gt;" style="ellipse;whiteSpace=wrap;html=1;" parent="1" vertex="1">
          <mxGeometry x="240" y="50" width="100" height="30" as="geometry" />
        </mxCell>
        <mxCell id="jtqfHJgski-L8b3BMZRt-13" style="rounded=0;orthogonalLoop=1;jettySize=auto;html=1;entryX=1;entryY=0;entryDx=0;entryDy=0;endArrow=none;endFill=0;" parent="1" source="jtqfHJgski-L8b3BMZRt-10" target="jtqfHJgski-L8b3BMZRt-6" edge="1">
          <mxGeometry relative="1" as="geometry" />
        </mxCell>
        <mxCell id="jtqfHJgski-L8b3BMZRt-10" value="&lt;font style=&quot;font-size: 15px;&quot;&gt;Last_Name&lt;/font&gt;" style="ellipse;whiteSpace=wrap;html=1;" parent="1" vertex="1">
          <mxGeometry x="375" y="50" width="105" height="30" as="geometry" />
        </mxCell>
        <mxCell id="jtqfHJgski-L8b3BMZRt-20" style="rounded=0;orthogonalLoop=1;jettySize=auto;html=1;entryX=0;entryY=1;entryDx=0;entryDy=0;endArrow=none;endFill=0;exitX=0.5;exitY=0;exitDx=0;exitDy=0;" parent="1" source="jtqfHJgski-L8b3BMZRt-18" target="jtqfHJgski-L8b3BMZRt-1" edge="1">
          <mxGeometry relative="1" as="geometry" />
        </mxCell>
        <mxCell id="jtqfHJgski-L8b3BMZRt-23" style="rounded=0;orthogonalLoop=1;jettySize=auto;html=1;entryX=0.5;entryY=0;entryDx=0;entryDy=0;endArrow=none;endFill=0;exitX=0.5;exitY=1;exitDx=0;exitDy=0;shape=link;" parent="1" source="jtqfHJgski-L8b3BMZRt-18" target="jtqfHJgski-L8b3BMZRt-4" edge="1">
          <mxGeometry relative="1" as="geometry" />
        </mxCell>
        <mxCell id="jtqfHJgski-L8b3BMZRt-18" value="Has" style="rhombus;whiteSpace=wrap;html=1;" parent="1" vertex="1">
          <mxGeometry x="272.5" y="270" width="70" height="50" as="geometry" />
        </mxCell>
        <mxCell id="jtqfHJgski-L8b3BMZRt-22" style="rounded=0;orthogonalLoop=1;jettySize=auto;html=1;entryX=1;entryY=1;entryDx=0;entryDy=0;endArrow=none;endFill=0;exitX=0.5;exitY=0;exitDx=0;exitDy=0;" parent="1" source="jtqfHJgski-L8b3BMZRt-19" target="jtqfHJgski-L8b3BMZRt-1" edge="1">
          <mxGeometry relative="1" as="geometry">
            <mxPoint x="515.5" y="230" as="targetPoint" />
          </mxGeometry>
        </mxCell>
        <mxCell id="jtqfHJgski-L8b3BMZRt-19" value="Has" style="rhombus;whiteSpace=wrap;html=1;" parent="1" vertex="1">
          <mxGeometry x="541.5" y="270" width="70" height="50" as="geometry" />
        </mxCell>
        <mxCell id="jtqfHJgski-L8b3BMZRt-24" value="" style="endArrow=none;html=1;rounded=0;exitX=0.5;exitY=0;exitDx=0;exitDy=0;entryX=0.5;entryY=1;entryDx=0;entryDy=0;shape=link;" parent="1" source="jtqfHJgski-L8b3BMZRt-3" target="jtqfHJgski-L8b3BMZRt-19" edge="1">
          <mxGeometry width="50" height="50" relative="1" as="geometry">
            <mxPoint x="651.5" y="320" as="sourcePoint" />
            <mxPoint x="701.5" y="270" as="targetPoint" />
          </mxGeometry>
        </mxCell>
        <mxCell id="jtqfHJgski-L8b3BMZRt-25" value="N" style="text;html=1;align=center;verticalAlign=middle;resizable=0;points=[];autosize=1;strokeColor=none;fillColor=none;" parent="1" vertex="1">
          <mxGeometry x="574" y="311" width="30" height="30" as="geometry" />
        </mxCell>
        <mxCell id="jtqfHJgski-L8b3BMZRt-27" value="1" style="text;html=1;align=center;verticalAlign=middle;resizable=0;points=[];autosize=1;strokeColor=none;fillColor=none;" parent="1" vertex="1">
          <mxGeometry x="568" y="246" width="30" height="30" as="geometry" />
        </mxCell>
        <mxCell id="jtqfHJgski-L8b3BMZRt-28" value="N" style="text;html=1;align=center;verticalAlign=middle;resizable=0;points=[];autosize=1;strokeColor=none;fillColor=none;" parent="1" vertex="1">
          <mxGeometry x="278.5" y="311" width="30" height="30" as="geometry" />
        </mxCell>
        <mxCell id="jtqfHJgski-L8b3BMZRt-29" value="1" style="text;html=1;align=center;verticalAlign=middle;resizable=0;points=[];autosize=1;strokeColor=none;fillColor=none;" parent="1" vertex="1">
          <mxGeometry x="286" y="246" width="30" height="30" as="geometry" />
        </mxCell>
        <mxCell id="jtqfHJgski-L8b3BMZRt-30" value="Has" style="rhombus;whiteSpace=wrap;html=1;" parent="1" vertex="1">
          <mxGeometry x="541.5" y="420" width="70" height="50" as="geometry" />
        </mxCell>
        <mxCell id="jtqfHJgski-L8b3BMZRt-31" value="Has" style="rhombus;whiteSpace=wrap;html=1;" parent="1" vertex="1">
          <mxGeometry x="272.5" y="420" width="70" height="50" as="geometry" />
        </mxCell>
        <mxCell id="jtqfHJgski-L8b3BMZRt-33" value="" style="endArrow=none;html=1;rounded=0;exitX=0.5;exitY=0;exitDx=0;exitDy=0;entryX=0.5;entryY=1;entryDx=0;entryDy=0;" parent="1" source="jtqfHJgski-L8b3BMZRt-31" target="jtqfHJgski-L8b3BMZRt-4" edge="1">
          <mxGeometry width="50" height="50" relative="1" as="geometry">
            <mxPoint x="135" y="450" as="sourcePoint" />
            <mxPoint x="185" y="400" as="targetPoint" />
          </mxGeometry>
        </mxCell>
        <mxCell id="jtqfHJgski-L8b3BMZRt-35" value="" style="endArrow=none;html=1;rounded=0;exitX=0.5;exitY=0;exitDx=0;exitDy=0;entryX=0.5;entryY=1;entryDx=0;entryDy=0;" parent="1" source="jtqfHJgski-L8b3BMZRt-30" target="jtqfHJgski-L8b3BMZRt-3" edge="1">
          <mxGeometry width="50" height="50" relative="1" as="geometry">
            <mxPoint x="514" y="440" as="sourcePoint" />
            <mxPoint x="564" y="390" as="targetPoint" />
          </mxGeometry>
        </mxCell>
        <mxCell id="jtqfHJgski-L8b3BMZRt-36" value="" style="endArrow=none;html=1;rounded=0;exitX=0.5;exitY=1;exitDx=0;exitDy=0;entryX=0;entryY=0;entryDx=0;entryDy=0;" parent="1" source="jtqfHJgski-L8b3BMZRt-31" target="jtqfHJgski-L8b3BMZRt-2" edge="1">
          <mxGeometry width="50" height="50" relative="1" as="geometry">
            <mxPoint x="350" y="560" as="sourcePoint" />
            <mxPoint x="400" y="510" as="targetPoint" />
          </mxGeometry>
        </mxCell>
        <mxCell id="jtqfHJgski-L8b3BMZRt-38" value="" style="endArrow=none;html=1;rounded=0;exitX=1;exitY=0;exitDx=0;exitDy=0;entryX=0.5;entryY=1;entryDx=0;entryDy=0;" parent="1" source="jtqfHJgski-L8b3BMZRt-2" target="jtqfHJgski-L8b3BMZRt-30" edge="1">
          <mxGeometry width="50" height="50" relative="1" as="geometry">
            <mxPoint x="538" y="510" as="sourcePoint" />
            <mxPoint x="673" y="480" as="targetPoint" />
          </mxGeometry>
        </mxCell>
        <mxCell id="jtqfHJgski-L8b3BMZRt-39" value="N" style="text;html=1;align=center;verticalAlign=middle;resizable=0;points=[];autosize=1;strokeColor=none;fillColor=none;" parent="1" vertex="1">
          <mxGeometry x="282" y="400" width="30" height="30" as="geometry" />
        </mxCell>
        <mxCell id="jtqfHJgski-L8b3BMZRt-40" value="N" style="text;html=1;align=center;verticalAlign=middle;resizable=0;points=[];autosize=1;strokeColor=none;fillColor=none;" parent="1" vertex="1">
          <mxGeometry x="572" y="400" width="30" height="30" as="geometry" />
        </mxCell>
        <mxCell id="jtqfHJgski-L8b3BMZRt-41" value="M" style="text;html=1;align=center;verticalAlign=middle;resizable=0;points=[];autosize=1;strokeColor=none;fillColor=none;" parent="1" vertex="1">
          <mxGeometry x="569" y="463" width="30" height="30" as="geometry" />
        </mxCell>
        <mxCell id="jtqfHJgski-L8b3BMZRt-42" value="M" style="text;html=1;align=center;verticalAlign=middle;resizable=0;points=[];autosize=1;strokeColor=none;fillColor=none;" parent="1" vertex="1">
          <mxGeometry x="285" y="463" width="30" height="30" as="geometry" />
        </mxCell>
        <mxCell id="jtqfHJgski-L8b3BMZRt-44" value="&lt;span style=&quot;font-size: 15px;&quot;&gt;Name&lt;/span&gt;" style="ellipse;whiteSpace=wrap;html=1;" parent="1" vertex="1">
          <mxGeometry x="395" y="610" width="80" height="30" as="geometry" />
        </mxCell>
        <mxCell id="jtqfHJgski-L8b3BMZRt-45" value="&lt;span style=&quot;font-size: 15px;&quot;&gt;Description&lt;/span&gt;" style="ellipse;whiteSpace=wrap;html=1;" parent="1" vertex="1">
          <mxGeometry x="482.5" y="600" width="107.5" height="30" as="geometry" />
        </mxCell>
        <mxCell id="jtqfHJgski-L8b3BMZRt-46" value="" style="endArrow=none;html=1;rounded=0;exitX=0.5;exitY=0;exitDx=0;exitDy=0;entryX=0.5;entryY=1;entryDx=0;entryDy=0;" parent="1" source="jtqfHJgski-L8b3BMZRt-44" target="jtqfHJgski-L8b3BMZRt-2" edge="1">
          <mxGeometry width="50" height="50" relative="1" as="geometry">
            <mxPoint x="320" y="600" as="sourcePoint" />
            <mxPoint x="370" y="550" as="targetPoint" />
          </mxGeometry>
        </mxCell>
        <mxCell id="jtqfHJgski-L8b3BMZRt-47" value="" style="endArrow=none;html=1;rounded=0;exitX=0.5;exitY=0;exitDx=0;exitDy=0;entryX=1;entryY=1;entryDx=0;entryDy=0;" parent="1" source="jtqfHJgski-L8b3BMZRt-45" target="jtqfHJgski-L8b3BMZRt-2" edge="1">
          <mxGeometry width="50" height="50" relative="1" as="geometry">
            <mxPoint x="540" y="570" as="sourcePoint" />
            <mxPoint x="590" y="520" as="targetPoint" />
          </mxGeometry>
        </mxCell>
        <mxCell id="jtqfHJgski-L8b3BMZRt-48" value="&lt;span style=&quot;font-size: 15px;&quot;&gt;Name&lt;/span&gt;" style="ellipse;whiteSpace=wrap;html=1;" parent="1" vertex="1">
          <mxGeometry x="711" y="278" width="69" height="30" as="geometry" />
        </mxCell>
        <mxCell id="jtqfHJgski-L8b3BMZRt-49" value="&lt;font style=&quot;font-size: 15px;&quot;&gt;&lt;u&gt;Id&lt;/u&gt;&lt;/font&gt;" style="ellipse;whiteSpace=wrap;html=1;" parent="1" vertex="1">
          <mxGeometry x="661" y="238" width="59" height="30" as="geometry" />
        </mxCell>
        <mxCell id="jtqfHJgski-L8b3BMZRt-50" value="&lt;font style=&quot;font-size: 15px;&quot;&gt;Description&lt;/font&gt;" style="ellipse;whiteSpace=wrap;html=1;" parent="1" vertex="1">
          <mxGeometry x="726" y="318" width="100" height="30" as="geometry" />
        </mxCell>
        <mxCell id="jtqfHJgski-L8b3BMZRt-51" value="&lt;font style=&quot;font-size: 15px;&quot;&gt;Cost&lt;/font&gt;" style="ellipse;whiteSpace=wrap;html=1;" parent="1" vertex="1">
          <mxGeometry x="726" y="358" width="64" height="30" as="geometry" />
        </mxCell>
        <mxCell id="jtqfHJgski-L8b3BMZRt-52" value="&lt;font style=&quot;font-size: 15px;&quot;&gt;Start_Date&lt;/font&gt;" style="ellipse;whiteSpace=wrap;html=1;" parent="1" vertex="1">
          <mxGeometry x="721" y="398" width="100" height="30" as="geometry" />
        </mxCell>
        <mxCell id="jtqfHJgski-L8b3BMZRt-54" value="&lt;font style=&quot;font-size: 15px;&quot;&gt;Days_Btwn_Purchases&lt;/font&gt;" style="ellipse;whiteSpace=wrap;html=1;" parent="1" vertex="1">
          <mxGeometry x="701" y="438" width="190" height="37" as="geometry" />
        </mxCell>
        <mxCell id="jtqfHJgski-L8b3BMZRt-55" value="&lt;span style=&quot;font-size: 15px;&quot;&gt;Is_Active&lt;/span&gt;" style="ellipse;whiteSpace=wrap;html=1;" parent="1" vertex="1">
          <mxGeometry x="671" y="488" width="110" height="30" as="geometry" />
        </mxCell>
        <mxCell id="jtqfHJgski-L8b3BMZRt-56" value="" style="endArrow=none;html=1;rounded=0;entryX=0;entryY=1;entryDx=0;entryDy=0;" parent="1" source="jtqfHJgski-L8b3BMZRt-3" target="jtqfHJgski-L8b3BMZRt-49" edge="1">
          <mxGeometry width="50" height="50" relative="1" as="geometry">
            <mxPoint x="644" y="350" as="sourcePoint" />
            <mxPoint x="694" y="300" as="targetPoint" />
          </mxGeometry>
        </mxCell>
        <mxCell id="jtqfHJgski-L8b3BMZRt-57" value="" style="endArrow=none;html=1;rounded=0;entryX=0;entryY=0.5;entryDx=0;entryDy=0;exitX=1;exitY=0;exitDx=0;exitDy=0;" parent="1" source="jtqfHJgski-L8b3BMZRt-3" target="jtqfHJgski-L8b3BMZRt-48" edge="1">
          <mxGeometry width="50" height="50" relative="1" as="geometry">
            <mxPoint x="605" y="360" as="sourcePoint" />
            <mxPoint x="686" y="274" as="targetPoint" />
          </mxGeometry>
        </mxCell>
        <mxCell id="jtqfHJgski-L8b3BMZRt-58" value="" style="endArrow=none;html=1;rounded=0;entryX=0;entryY=0.5;entryDx=0;entryDy=0;exitX=1;exitY=0.25;exitDx=0;exitDy=0;" parent="1" source="jtqfHJgski-L8b3BMZRt-3" target="jtqfHJgski-L8b3BMZRt-50" edge="1">
          <mxGeometry width="50" height="50" relative="1" as="geometry">
            <mxPoint x="662" y="360" as="sourcePoint" />
            <mxPoint x="721" y="303" as="targetPoint" />
          </mxGeometry>
        </mxCell>
        <mxCell id="jtqfHJgski-L8b3BMZRt-59" value="" style="endArrow=none;html=1;rounded=0;entryX=0;entryY=0.5;entryDx=0;entryDy=0;exitX=1;exitY=0.5;exitDx=0;exitDy=0;" parent="1" source="jtqfHJgski-L8b3BMZRt-3" target="jtqfHJgski-L8b3BMZRt-51" edge="1">
          <mxGeometry width="50" height="50" relative="1" as="geometry">
            <mxPoint x="662" y="370" as="sourcePoint" />
            <mxPoint x="736" y="343" as="targetPoint" />
          </mxGeometry>
        </mxCell>
        <mxCell id="jtqfHJgski-L8b3BMZRt-60" value="" style="endArrow=none;html=1;rounded=0;exitX=1;exitY=0.75;exitDx=0;exitDy=0;entryX=0;entryY=0.5;entryDx=0;entryDy=0;" parent="1" source="jtqfHJgski-L8b3BMZRt-3" target="jtqfHJgski-L8b3BMZRt-52" edge="1">
          <mxGeometry width="50" height="50" relative="1" as="geometry">
            <mxPoint x="662" y="380" as="sourcePoint" />
            <mxPoint x="704" y="380" as="targetPoint" />
          </mxGeometry>
        </mxCell>
        <mxCell id="jtqfHJgski-L8b3BMZRt-61" value="" style="endArrow=none;html=1;rounded=0;exitX=1;exitY=1;exitDx=0;exitDy=0;entryX=0;entryY=0.5;entryDx=0;entryDy=0;" parent="1" source="jtqfHJgski-L8b3BMZRt-3" target="jtqfHJgski-L8b3BMZRt-54" edge="1">
          <mxGeometry width="50" height="50" relative="1" as="geometry">
            <mxPoint x="662" y="390" as="sourcePoint" />
            <mxPoint x="734" y="423" as="targetPoint" />
          </mxGeometry>
        </mxCell>
        <mxCell id="jtqfHJgski-L8b3BMZRt-62" value="" style="endArrow=none;html=1;rounded=0;exitX=0.75;exitY=1;exitDx=0;exitDy=0;entryX=0;entryY=0;entryDx=0;entryDy=0;" parent="1" source="jtqfHJgski-L8b3BMZRt-3" target="jtqfHJgski-L8b3BMZRt-55" edge="1">
          <mxGeometry width="50" height="50" relative="1" as="geometry">
            <mxPoint x="662" y="390" as="sourcePoint" />
            <mxPoint x="731" y="423" as="targetPoint" />
          </mxGeometry>
        </mxCell>
        <mxCell id="jtqfHJgski-L8b3BMZRt-63" value="&lt;span style=&quot;font-size: 15px;&quot;&gt;Name&lt;/span&gt;" style="ellipse;whiteSpace=wrap;html=1;" parent="1" vertex="1">
          <mxGeometry x="120" y="300" width="75" height="30" as="geometry" />
        </mxCell>
        <mxCell id="jtqfHJgski-L8b3BMZRt-64" value="&lt;font style=&quot;font-size: 15px;&quot;&gt;&lt;u&gt;Id&lt;/u&gt;&lt;/font&gt;" style="ellipse;whiteSpace=wrap;html=1;" parent="1" vertex="1">
          <mxGeometry x="170" y="260" width="55" height="30" as="geometry" />
        </mxCell>
        <mxCell id="jtqfHJgski-L8b3BMZRt-65" value="&lt;font style=&quot;font-size: 15px;&quot;&gt;Description&lt;/font&gt;" style="ellipse;whiteSpace=wrap;html=1;" parent="1" vertex="1">
          <mxGeometry x="85" y="342" width="100" height="30" as="geometry" />
        </mxCell>
        <mxCell id="jtqfHJgski-L8b3BMZRt-66" value="&lt;font style=&quot;font-size: 15px;&quot;&gt;Cost&lt;/font&gt;" style="ellipse;whiteSpace=wrap;html=1;" parent="1" vertex="1">
          <mxGeometry x="130" y="388" width="65" height="30" as="geometry" />
        </mxCell>
        <mxCell id="jtqfHJgski-L8b3BMZRt-67" value="&lt;font style=&quot;font-size: 15px;&quot;&gt;Date&lt;/font&gt;" style="ellipse;whiteSpace=wrap;html=1;" parent="1" vertex="1">
          <mxGeometry x="150" y="433" width="65" height="30" as="geometry" />
        </mxCell>
        <mxCell id="jtqfHJgski-L8b3BMZRt-72" value="" style="endArrow=none;html=1;rounded=0;exitX=0.25;exitY=0;exitDx=0;exitDy=0;entryX=1;entryY=1;entryDx=0;entryDy=0;" parent="1" source="jtqfHJgski-L8b3BMZRt-4" target="jtqfHJgski-L8b3BMZRt-64" edge="1">
          <mxGeometry width="50" height="50" relative="1" as="geometry">
            <mxPoint x="155" y="240" as="sourcePoint" />
            <mxPoint x="205" y="190" as="targetPoint" />
          </mxGeometry>
        </mxCell>
        <mxCell id="jtqfHJgski-L8b3BMZRt-73" value="" style="endArrow=none;html=1;rounded=0;exitX=1;exitY=0.5;exitDx=0;exitDy=0;entryX=0;entryY=0.5;entryDx=0;entryDy=0;" parent="1" source="jtqfHJgski-L8b3BMZRt-65" target="jtqfHJgski-L8b3BMZRt-4" edge="1">
          <mxGeometry width="50" height="50" relative="1" as="geometry">
            <mxPoint x="245" y="450" as="sourcePoint" />
            <mxPoint x="245" y="370" as="targetPoint" />
          </mxGeometry>
        </mxCell>
        <mxCell id="jtqfHJgski-L8b3BMZRt-74" value="" style="endArrow=none;html=1;rounded=0;exitX=1;exitY=0.5;exitDx=0;exitDy=0;entryX=0;entryY=0;entryDx=0;entryDy=0;" parent="1" source="jtqfHJgski-L8b3BMZRt-63" target="jtqfHJgski-L8b3BMZRt-4" edge="1">
          <mxGeometry width="50" height="50" relative="1" as="geometry">
            <mxPoint x="215" y="307" as="sourcePoint" />
            <mxPoint x="275" y="320" as="targetPoint" />
          </mxGeometry>
        </mxCell>
        <mxCell id="jtqfHJgski-L8b3BMZRt-75" value="" style="endArrow=none;html=1;rounded=0;exitX=1;exitY=0.5;exitDx=0;exitDy=0;entryX=0;entryY=1;entryDx=0;entryDy=0;" parent="1" source="jtqfHJgski-L8b3BMZRt-66" target="jtqfHJgski-L8b3BMZRt-4" edge="1">
          <mxGeometry width="50" height="50" relative="1" as="geometry">
            <mxPoint x="205" y="325" as="sourcePoint" />
            <mxPoint x="245" y="430" as="targetPoint" />
          </mxGeometry>
        </mxCell>
        <mxCell id="jtqfHJgski-L8b3BMZRt-76" value="" style="endArrow=none;html=1;rounded=0;exitX=1;exitY=0.5;exitDx=0;exitDy=0;entryX=0.25;entryY=1;entryDx=0;entryDy=0;" parent="1" source="jtqfHJgski-L8b3BMZRt-67" target="jtqfHJgski-L8b3BMZRt-4" edge="1">
          <mxGeometry width="50" height="50" relative="1" as="geometry">
            <mxPoint x="205" y="413" as="sourcePoint" />
            <mxPoint x="258" y="400" as="targetPoint" />
          </mxGeometry>
        </mxCell>
        <mxCell id="8ZTYeHEFNzWiq09AjDg--1" value="Has" style="rhombus;whiteSpace=wrap;html=1;" vertex="1" parent="1">
          <mxGeometry x="400" y="345" width="70" height="50" as="geometry" />
        </mxCell>
        <mxCell id="8ZTYeHEFNzWiq09AjDg--3" style="rounded=0;orthogonalLoop=1;jettySize=auto;html=1;entryX=0.5;entryY=1;entryDx=0;entryDy=0;endArrow=none;endFill=0;exitX=0.5;exitY=0;exitDx=0;exitDy=0;" edge="1" parent="1" source="8ZTYeHEFNzWiq09AjDg--1" target="jtqfHJgski-L8b3BMZRt-1">
          <mxGeometry relative="1" as="geometry">
            <mxPoint x="318" y="280" as="sourcePoint" />
            <mxPoint x="410" y="240" as="targetPoint" />
          </mxGeometry>
        </mxCell>
        <mxCell id="8ZTYeHEFNzWiq09AjDg--4" style="rounded=0;orthogonalLoop=1;jettySize=auto;html=1;entryX=0.5;entryY=1;entryDx=0;entryDy=0;endArrow=none;endFill=0;exitX=0.5;exitY=0;exitDx=0;exitDy=0;" edge="1" parent="1" source="jtqfHJgski-L8b3BMZRt-2" target="8ZTYeHEFNzWiq09AjDg--1">
          <mxGeometry relative="1" as="geometry">
            <mxPoint x="450" y="475" as="sourcePoint" />
            <mxPoint x="455" y="360" as="targetPoint" />
          </mxGeometry>
        </mxCell>
        <mxCell id="8ZTYeHEFNzWiq09AjDg--5" value="N" style="text;html=1;align=center;verticalAlign=middle;resizable=0;points=[];autosize=1;strokeColor=none;fillColor=none;" vertex="1" parent="1">
          <mxGeometry x="430" y="388" width="30" height="30" as="geometry" />
        </mxCell>
        <mxCell id="8ZTYeHEFNzWiq09AjDg--6" value="1" style="text;html=1;align=center;verticalAlign=middle;resizable=0;points=[];autosize=1;strokeColor=none;fillColor=none;" vertex="1" parent="1">
          <mxGeometry x="430" y="324" width="30" height="30" as="geometry" />
        </mxCell>
        <mxCell id="8ZTYeHEFNzWiq09AjDg--7" value="&lt;font style=&quot;font-size: 15px;&quot;&gt;&lt;u&gt;Id&lt;/u&gt;&lt;/font&gt;" style="ellipse;whiteSpace=wrap;html=1;" vertex="1" parent="1">
          <mxGeometry x="322.5" y="600" width="60" height="30" as="geometry" />
        </mxCell>
        <mxCell id="8ZTYeHEFNzWiq09AjDg--9" value="" style="endArrow=none;html=1;rounded=0;exitX=0.5;exitY=0;exitDx=0;exitDy=0;entryX=0;entryY=1;entryDx=0;entryDy=0;" edge="1" parent="1" source="8ZTYeHEFNzWiq09AjDg--7" target="jtqfHJgski-L8b3BMZRt-2">
          <mxGeometry width="50" height="50" relative="1" as="geometry">
            <mxPoint x="445" y="620" as="sourcePoint" />
            <mxPoint x="445" y="560" as="targetPoint" />
          </mxGeometry>
        </mxCell>
        <mxCell id="8ZTYeHEFNzWiq09AjDg--10" value="&lt;font style=&quot;font-size: 15px;&quot;&gt;Email&lt;/font&gt;" style="ellipse;whiteSpace=wrap;html=1;" vertex="1" parent="1">
          <mxGeometry x="410" y="107" width="70" height="30" as="geometry" />
        </mxCell>
        <mxCell id="8ZTYeHEFNzWiq09AjDg--11" style="rounded=0;orthogonalLoop=1;jettySize=auto;html=1;entryX=0.5;entryY=0;entryDx=0;entryDy=0;endArrow=none;endFill=0;exitX=0.5;exitY=1;exitDx=0;exitDy=0;" edge="1" parent="1" source="8ZTYeHEFNzWiq09AjDg--10" target="jtqfHJgski-L8b3BMZRt-1">
          <mxGeometry relative="1" as="geometry">
            <mxPoint x="520" y="176" as="sourcePoint" />
            <mxPoint x="480" y="200" as="targetPoint" />
          </mxGeometry>
        </mxCell>
      </root>
    </mxGraphModel>
  </diagram>
</mxfile>
